<svg xmlns="http://www.w3.org/2000/svg" xmlns:xlink="http://www.w3.org/1999/xlink" width="500" zoomAndPan="magnify" viewBox="0 0 375 74.999997" height="100" preserveAspectRatio="xMidYMid meet" version="1.0"><defs><g/><clipPath id="5569a40f47"><path d="M 33.734375 7.5 L 92.984375 7.5 L 92.984375 67.5 L 33.734375 67.5 Z M 33.734375 7.5 " clip-rule="nonzero"/></clipPath><clipPath id="2910a454b2"><path d="M 76.847656 30.332031 L 75.554688 29.039062 L 70.882812 30.585938 L 72.429688 25.941406 L 71.132812 24.652344 L 68.28125 33.167969 Z M 80.121094 29.300781 L 74.566406 19.019531 L 73.359375 20.226562 L 78.914062 30.503906 Z M 82.589844 18.9375 L 81.035156 23.582031 L 82.328125 24.871094 L 85.179688 16.355469 L 76.632812 19.195312 L 77.929688 20.488281 Z M 63.859375 27.335938 L 61.660156 22.382812 L 59.832031 22.382812 L 63.859375 30.984375 L 67.890625 23.246094 L 66.058594 23.097656 Z M 69.464844 20.496094 L 57.863281 17.140625 L 57.863281 18.84375 L 69.464844 22.199219 Z M 63.859375 11.347656 L 66.058594 15.640625 L 67.886719 15.640625 L 63.859375 7.695312 L 59.828125 15.765625 L 61.664062 15.746094 Z M 51.027344 30.707031 L 59.574219 33.546875 L 56.726562 25.03125 L 55.429688 26.320312 L 56.984375 30.964844 L 52.324219 29.417969 Z M 46.582031 28.511719 L 56.902344 22.976562 L 55.691406 21.773438 L 45.375 27.304688 Z M 46.84375 23.957031 L 45.289062 19.316406 L 49.949219 20.863281 L 51.246094 19.574219 L 42.695312 16.734375 L 45.546875 25.246094 Z M 50.132812 41.984375 L 58.078125 37.972656 L 49.960938 33.957031 L 49.929688 35.78125 L 54.425781 37.972656 L 50.132812 40.160156 Z M 46.855469 32.007812 L 43.484375 43.5625 L 45.195312 43.5625 L 48.5625 32.007812 Z M 41.429688 33.957031 L 33.730469 37.972656 L 41.96875 41.984375 L 42.058594 40.160156 L 37.339844 37.96875 L 41.421875 35.78125 Z M 51.40625 45.074219 L 52.703125 46.367188 L 57.367188 44.820312 L 55.8125 49.460938 L 57.105469 50.753906 L 59.957031 42.238281 Z M 48.132812 46.105469 L 53.6875 56.386719 L 54.898438 55.179688 L 49.34375 44.902344 Z M 45.667969 56.46875 L 47.222656 51.828125 L 45.929688 50.535156 L 43.078125 59.050781 L 51.625 56.210938 L 50.332031 54.917969 Z M 62.199219 51.878906 L 64.398438 47.675781 L 66.59375 52.230469 L 68.425781 52.230469 L 64.398438 44.027344 L 60.367188 51.964844 Z M 57.863281 54.910156 L 69.464844 58.265625 L 69.464844 56.5625 L 57.863281 53.207031 Z M 64.398438 63.660156 L 62.199219 58.96875 L 60.371094 58.96875 L 64.398438 67.308594 L 68.429688 59.4375 L 66.597656 59.359375 Z M 71.53125 50.375 L 72.828125 49.082031 L 71.273438 44.441406 L 75.9375 45.988281 L 77.230469 44.699219 L 68.683594 41.859375 Z M 81.675781 46.898438 L 71.359375 52.429688 L 72.566406 53.632812 L 82.886719 48.101562 Z M 81.417969 51.449219 L 82.972656 56.089844 L 78.308594 54.542969 L 77.011719 55.832031 L 85.5625 58.671875 L 82.710938 50.15625 Z M 78.164062 33.421875 L 70.105469 37.4375 L 78.164062 41.453125 L 78.164062 39.625 L 73.769531 37.4375 L 78.164062 35.25 Z M 83.066406 32.011719 L 79.699219 42.601562 L 81.410156 42.601562 L 84.777344 32.011719 Z M 92.992188 37.4375 L 84.933594 41.453125 L 84.933594 39.625 L 89.328125 37.4375 L 84.933594 35.246094 L 84.933594 33.421875 Z M 92.992188 37.4375 " clip-rule="nonzero"/></clipPath><clipPath id="5c7a21f7dc"><path d="M 76.847656 30.332031 L 75.554688 29.039062 L 70.882812 30.585938 L 72.429688 25.941406 L 71.132812 24.652344 L 68.28125 33.167969 Z M 80.121094 29.300781 L 74.566406 19.019531 L 73.359375 20.226562 L 78.914062 30.503906 Z M 82.589844 18.9375 L 81.035156 23.582031 L 82.328125 24.871094 L 85.179688 16.355469 L 76.632812 19.195312 L 77.929688 20.488281 Z M 63.859375 27.335938 L 61.660156 22.382812 L 59.832031 22.382812 L 63.859375 30.984375 L 67.890625 23.246094 L 66.058594 23.097656 Z M 69.464844 20.496094 L 57.863281 17.140625 L 57.863281 18.84375 L 69.464844 22.199219 Z M 63.859375 11.347656 L 66.058594 15.640625 L 67.886719 15.640625 L 63.859375 7.695312 L 59.828125 15.765625 L 61.664062 15.746094 Z M 51.027344 30.707031 L 59.574219 33.546875 L 56.726562 25.03125 L 55.429688 26.320312 L 56.984375 30.964844 L 52.324219 29.417969 Z M 46.582031 28.511719 L 56.902344 22.976562 L 55.691406 21.773438 L 45.375 27.304688 Z M 46.84375 23.957031 L 45.289062 19.316406 L 49.949219 20.863281 L 51.246094 19.574219 L 42.695312 16.734375 L 45.546875 25.246094 Z M 50.132812 41.984375 L 58.078125 37.972656 L 49.960938 33.957031 L 49.929688 35.78125 L 54.425781 37.972656 L 50.132812 40.160156 Z M 46.855469 32.007812 L 43.484375 43.5625 L 45.195312 43.5625 L 48.5625 32.007812 Z M 41.429688 33.957031 L 33.730469 37.972656 L 41.96875 41.984375 L 42.058594 40.160156 L 37.339844 37.96875 L 41.421875 35.78125 Z M 51.40625 45.074219 L 52.703125 46.367188 L 57.367188 44.820312 L 55.8125 49.460938 L 57.105469 50.753906 L 59.957031 42.238281 Z M 48.132812 46.105469 L 53.6875 56.386719 L 54.898438 55.179688 L 49.34375 44.902344 Z M 45.667969 56.46875 L 47.222656 51.828125 L 45.929688 50.535156 L 43.078125 59.050781 L 51.625 56.210938 L 50.332031 54.917969 Z M 62.199219 51.878906 L 64.398438 47.675781 L 66.59375 52.230469 L 68.425781 52.230469 L 64.398438 44.027344 L 60.367188 51.964844 Z M 57.863281 54.910156 L 69.464844 58.265625 L 69.464844 56.5625 L 57.863281 53.207031 Z M 64.398438 63.660156 L 62.199219 58.96875 L 60.371094 58.96875 L 64.398438 67.308594 L 68.429688 59.4375 L 66.597656 59.359375 Z M 71.53125 50.375 L 72.828125 49.082031 L 71.273438 44.441406 L 75.9375 45.988281 L 77.230469 44.699219 L 68.683594 41.859375 Z M 81.675781 46.898438 L 71.359375 52.429688 L 72.566406 53.632812 L 82.886719 48.101562 Z M 81.417969 51.449219 L 82.972656 56.089844 L 78.308594 54.542969 L 77.011719 55.832031 L 85.5625 58.671875 L 82.710938 50.15625 Z M 78.164062 33.421875 L 70.105469 37.4375 L 78.164062 41.453125 L 78.164062 39.625 L 73.769531 37.4375 L 78.164062 35.25 Z M 83.066406 32.011719 L 79.699219 42.601562 L 81.410156 42.601562 L 84.777344 32.011719 Z M 92.992188 37.4375 L 84.933594 41.453125 L 84.933594 39.625 L 89.328125 37.4375 L 84.933594 35.246094 L 84.933594 33.421875 Z M 92.992188 37.4375 " clip-rule="nonzero"/></clipPath><linearGradient x1="13.332509" gradientTransform="matrix(-0.966613, -0.000000000000000118, -0.000000000000000118, 0.962789, 105.872668, -33.199524)" y1="73.435997" x2="74.629017" gradientUnits="userSpaceOnUse" y2="73.435997" id="23ebba250a"><stop stop-opacity="1" stop-color="rgb(55.299377%, 60.798645%, 2.69928%)" offset="0"/><stop stop-opacity="1" stop-color="rgb(55.299377%, 60.798645%, 2.69928%)" offset="0.25"/><stop stop-opacity="1" stop-color="rgb(55.299377%, 60.798645%, 2.69928%)" offset="0.3125"/><stop stop-opacity="1" stop-color="rgb(55.299377%, 60.798645%, 2.69928%)" offset="0.328125"/><stop stop-opacity="1" stop-color="rgb(55.232239%, 60.716248%, 2.787781%)" offset="0.335938"/><stop stop-opacity="1" stop-color="rgb(55.0354%, 60.470581%, 3.053284%)" offset="0.34375"/><stop stop-opacity="1" stop-color="rgb(54.772949%, 60.145569%, 3.407288%)" offset="0.351563"/><stop stop-opacity="1" stop-color="rgb(54.512024%, 59.819031%, 3.759766%)" offset="0.359375"/><stop stop-opacity="1" stop-color="rgb(54.249573%, 59.492493%, 4.11377%)" offset="0.367188"/><stop stop-opacity="1" stop-color="rgb(53.987122%, 59.165955%, 4.466248%)" offset="0.375"/><stop stop-opacity="1" stop-color="rgb(53.726196%, 58.839417%, 4.820251%)" offset="0.382812"/><stop stop-opacity="1" stop-color="rgb(53.463745%, 58.512878%, 5.172729%)" offset="0.390625"/><stop stop-opacity="1" stop-color="rgb(53.201294%, 58.187866%, 5.525208%)" offset="0.398438"/><stop stop-opacity="1" stop-color="rgb(52.940369%, 57.861328%, 5.879211%)" offset="0.40625"/><stop stop-opacity="1" stop-color="rgb(52.677917%, 57.53479%, 6.231689%)" offset="0.414062"/><stop stop-opacity="1" stop-color="rgb(52.415466%, 57.208252%, 6.585693%)" offset="0.421875"/><stop stop-opacity="1" stop-color="rgb(52.154541%, 56.881714%, 6.938171%)" offset="0.429688"/><stop stop-opacity="1" stop-color="rgb(51.89209%, 56.556702%, 7.292175%)" offset="0.4375"/><stop stop-opacity="1" stop-color="rgb(51.629639%, 56.230164%, 7.644653%)" offset="0.445312"/><stop stop-opacity="1" stop-color="rgb(51.368713%, 55.903625%, 7.998657%)" offset="0.453125"/><stop stop-opacity="1" stop-color="rgb(51.106262%, 55.577087%, 8.351135%)" offset="0.460938"/><stop stop-opacity="1" stop-color="rgb(50.845337%, 55.250549%, 8.703613%)" offset="0.46875"/><stop stop-opacity="1" stop-color="rgb(50.582886%, 54.924011%, 9.057617%)" offset="0.476562"/><stop stop-opacity="1" stop-color="rgb(50.320435%, 54.598999%, 9.410095%)" offset="0.484375"/><stop stop-opacity="1" stop-color="rgb(50.059509%, 54.272461%, 9.764099%)" offset="0.492188"/><stop stop-opacity="1" stop-color="rgb(49.797058%, 53.945923%, 10.116577%)" offset="0.5"/><stop stop-opacity="1" stop-color="rgb(49.534607%, 53.619385%, 10.470581%)" offset="0.507812"/><stop stop-opacity="1" stop-color="rgb(49.273682%, 53.292847%, 10.823059%)" offset="0.515625"/><stop stop-opacity="1" stop-color="rgb(49.01123%, 52.967834%, 11.177063%)" offset="0.523438"/><stop stop-opacity="1" stop-color="rgb(48.748779%, 52.641296%, 11.529541%)" offset="0.53125"/><stop stop-opacity="1" stop-color="rgb(48.487854%, 52.314758%, 11.882019%)" offset="0.539062"/><stop stop-opacity="1" stop-color="rgb(48.225403%, 51.98822%, 12.236023%)" offset="0.546875"/><stop stop-opacity="1" stop-color="rgb(47.962952%, 51.661682%, 12.588501%)" offset="0.554688"/><stop stop-opacity="1" stop-color="rgb(47.702026%, 51.33667%, 12.942505%)" offset="0.5625"/><stop stop-opacity="1" stop-color="rgb(47.439575%, 51.010132%, 13.294983%)" offset="0.570312"/><stop stop-opacity="1" stop-color="rgb(47.177124%, 50.683594%, 13.648987%)" offset="0.578125"/><stop stop-opacity="1" stop-color="rgb(46.916199%, 50.357056%, 14.001465%)" offset="0.585938"/><stop stop-opacity="1" stop-color="rgb(46.653748%, 50.030518%, 14.355469%)" offset="0.59375"/><stop stop-opacity="1" stop-color="rgb(46.391296%, 49.703979%, 14.707947%)" offset="0.601562"/><stop stop-opacity="1" stop-color="rgb(46.130371%, 49.378967%, 15.060425%)" offset="0.609375"/><stop stop-opacity="1" stop-color="rgb(45.86792%, 49.052429%, 15.414429%)" offset="0.617188"/><stop stop-opacity="1" stop-color="rgb(45.605469%, 48.725891%, 15.766907%)" offset="0.625"/><stop stop-opacity="1" stop-color="rgb(45.344543%, 48.399353%, 16.120911%)" offset="0.632812"/><stop stop-opacity="1" stop-color="rgb(45.082092%, 48.072815%, 16.473389%)" offset="0.640625"/><stop stop-opacity="1" stop-color="rgb(44.819641%, 47.747803%, 16.827393%)" offset="0.648438"/><stop stop-opacity="1" stop-color="rgb(44.558716%, 47.421265%, 17.179871%)" offset="0.65625"/><stop stop-opacity="1" stop-color="rgb(44.296265%, 47.094727%, 17.532349%)" offset="0.664062"/><stop stop-opacity="1" stop-color="rgb(44.033813%, 46.768188%, 17.886353%)" offset="0.671875"/><stop stop-opacity="1" stop-color="rgb(43.772888%, 46.44165%, 18.238831%)" offset="0.679688"/><stop stop-opacity="1" stop-color="rgb(43.510437%, 46.115112%, 18.592834%)" offset="0.6875"/><stop stop-opacity="1" stop-color="rgb(43.247986%, 45.7901%, 18.945312%)" offset="0.695312"/><stop stop-opacity="1" stop-color="rgb(42.987061%, 45.463562%, 19.299316%)" offset="0.703125"/><stop stop-opacity="1" stop-color="rgb(42.724609%, 45.137024%, 19.651794%)" offset="0.710938"/><stop stop-opacity="1" stop-color="rgb(42.462158%, 44.810486%, 20.005798%)" offset="0.71875"/><stop stop-opacity="1" stop-color="rgb(42.201233%, 44.483948%, 20.358276%)" offset="0.726562"/><stop stop-opacity="1" stop-color="rgb(41.938782%, 44.158936%, 20.710754%)" offset="0.734375"/><stop stop-opacity="1" stop-color="rgb(41.676331%, 43.832397%, 21.064758%)" offset="0.742188"/><stop stop-opacity="1" stop-color="rgb(41.415405%, 43.505859%, 21.417236%)" offset="0.75"/><stop stop-opacity="1" stop-color="rgb(41.152954%, 43.179321%, 21.77124%)" offset="0.757812"/><stop stop-opacity="1" stop-color="rgb(40.890503%, 42.852783%, 22.123718%)" offset="0.765625"/><stop stop-opacity="1" stop-color="rgb(40.629578%, 42.527771%, 22.477722%)" offset="0.773437"/><stop stop-opacity="1" stop-color="rgb(40.367126%, 42.201233%, 22.8302%)" offset="0.78125"/><stop stop-opacity="1" stop-color="rgb(40.104675%, 41.874695%, 23.184204%)" offset="0.789062"/><stop stop-opacity="1" stop-color="rgb(39.84375%, 41.548157%, 23.536682%)" offset="0.796875"/><stop stop-opacity="1" stop-color="rgb(39.581299%, 41.221619%, 23.88916%)" offset="0.804687"/><stop stop-opacity="1" stop-color="rgb(39.318848%, 40.895081%, 24.243164%)" offset="0.8125"/><stop stop-opacity="1" stop-color="rgb(39.057922%, 40.570068%, 24.595642%)" offset="0.820312"/><stop stop-opacity="1" stop-color="rgb(38.795471%, 40.24353%, 24.949646%)" offset="0.828125"/><stop stop-opacity="1" stop-color="rgb(38.53302%, 39.916992%, 25.302124%)" offset="0.835937"/><stop stop-opacity="1" stop-color="rgb(38.272095%, 39.590454%, 25.656128%)" offset="0.84375"/><stop stop-opacity="1" stop-color="rgb(38.009644%, 39.263916%, 26.008606%)" offset="0.851562"/><stop stop-opacity="1" stop-color="rgb(37.747192%, 38.938904%, 26.361084%)" offset="0.859375"/><stop stop-opacity="1" stop-color="rgb(37.486267%, 38.612366%, 26.715088%)" offset="0.867187"/><stop stop-opacity="1" stop-color="rgb(37.223816%, 38.285828%, 27.067566%)" offset="0.875"/><stop stop-opacity="1" stop-color="rgb(36.961365%, 37.95929%, 27.42157%)" offset="0.882812"/><stop stop-opacity="1" stop-color="rgb(36.700439%, 37.632751%, 27.774048%)" offset="0.890625"/><stop stop-opacity="1" stop-color="rgb(36.437988%, 37.306213%, 28.128052%)" offset="0.898437"/><stop stop-opacity="1" stop-color="rgb(36.175537%, 36.981201%, 28.48053%)" offset="0.90625"/><stop stop-opacity="1" stop-color="rgb(35.914612%, 36.654663%, 28.834534%)" offset="0.914062"/><stop stop-opacity="1" stop-color="rgb(35.652161%, 36.328125%, 29.187012%)" offset="0.921875"/><stop stop-opacity="1" stop-color="rgb(35.389709%, 36.001587%, 29.53949%)" offset="0.929687"/><stop stop-opacity="1" stop-color="rgb(35.128784%, 35.675049%, 29.893494%)" offset="0.9375"/><stop stop-opacity="1" stop-color="rgb(34.866333%, 35.350037%, 30.245972%)" offset="0.945312"/><stop stop-opacity="1" stop-color="rgb(34.603882%, 35.023499%, 30.599976%)" offset="0.953125"/><stop stop-opacity="1" stop-color="rgb(34.342957%, 34.69696%, 30.952454%)" offset="0.960937"/><stop stop-opacity="1" stop-color="rgb(34.080505%, 34.370422%, 31.306458%)" offset="0.96875"/><stop stop-opacity="1" stop-color="rgb(33.818054%, 34.043884%, 31.658936%)" offset="0.976562"/><stop stop-opacity="1" stop-color="rgb(33.557129%, 33.718872%, 32.012939%)" offset="0.984375"/><stop stop-opacity="1" stop-color="rgb(33.294678%, 33.392334%, 32.365417%)" offset="0.992187"/><stop stop-opacity="1" stop-color="rgb(33.032227%, 33.065796%, 32.717896%)" offset="1"/></linearGradient></defs><g clip-path="url(#5569a40f47)"><g clip-path="url(#2910a454b2)"><g clip-path="url(#5c7a21f7dc)"><path fill="url(#23ebba250a)" d="M 92.984375 7.695312 L 92.984375 67.308594 L 33.734375 67.308594 L 33.734375 7.695312 Z M 92.984375 7.695312 " fill-rule="nonzero"/></g></g></g><g fill="#8d9b07" fill-opacity="1"><g transform="translate(103.947647, 41.703711)"><g><path d="M 5.21875 0 L 2.625 0 C 2.195312 0 1.984375 -0.210938 1.984375 -0.640625 L 1.984375 -18.984375 C 1.984375 -19.410156 2.195312 -19.625 2.625 -19.625 L 9.890625 -19.625 C 11.484375 -19.625 12.722656 -19.1875 13.609375 -18.3125 C 14.503906 -17.4375 14.953125 -16.207031 14.953125 -14.625 L 14.953125 -12.25 C 14.953125 -9.945312 14.050781 -8.414062 12.25 -7.65625 L 12.25 -7.546875 L 15.515625 -0.734375 C 15.691406 -0.242188 15.515625 0 14.984375 0 L 12.515625 0 C 12.148438 0 11.882812 -0.0390625 11.71875 -0.125 C 11.5625 -0.207031 11.429688 -0.378906 11.328125 -0.640625 L 8.28125 -7.234375 L 6.234375 -7.234375 C 5.984375 -7.234375 5.859375 -7.125 5.859375 -6.90625 L 5.859375 -0.640625 C 5.859375 -0.210938 5.644531 0 5.21875 0 Z M 6.203125 -10.34375 L 9.1875 -10.34375 C 9.84375 -10.34375 10.320312 -10.476562 10.625 -10.75 C 10.925781 -11.03125 11.078125 -11.476562 11.078125 -12.09375 L 11.078125 -14.46875 C 11.078125 -15.101562 10.925781 -15.5625 10.625 -15.84375 C 10.320312 -16.125 9.84375 -16.265625 9.1875 -16.265625 L 6.203125 -16.265625 C 5.972656 -16.265625 5.859375 -16.15625 5.859375 -15.9375 L 5.859375 -10.6875 C 5.859375 -10.457031 5.972656 -10.34375 6.203125 -10.34375 Z M 6.203125 -10.34375 "/></g></g></g><g fill="#8d9b07" fill-opacity="1"><g transform="translate(122.813104, 41.703711)"><g><path d="M 12.03125 -19.625 L 14.59375 -19.625 C 15.039062 -19.625 15.265625 -19.421875 15.265625 -19.015625 L 15.265625 -4.984375 C 15.265625 -3.390625 14.820312 -2.160156 13.9375 -1.296875 C 13.050781 -0.429688 11.816406 0 10.234375 0 L 6.875 0 C 5.257812 0 4.015625 -0.425781 3.140625 -1.28125 C 2.265625 -2.132812 1.828125 -3.367188 1.828125 -4.984375 L 1.828125 -18.984375 C 1.828125 -19.410156 2.039062 -19.625 2.46875 -19.625 L 5.0625 -19.625 C 5.488281 -19.625 5.703125 -19.410156 5.703125 -18.984375 L 5.703125 -5.15625 C 5.703125 -4.507812 5.835938 -4.046875 6.109375 -3.765625 C 6.390625 -3.492188 6.847656 -3.359375 7.484375 -3.359375 L 9.59375 -3.359375 C 10.238281 -3.359375 10.695312 -3.492188 10.96875 -3.765625 C 11.25 -4.046875 11.390625 -4.507812 11.390625 -5.15625 L 11.390625 -18.984375 C 11.390625 -19.410156 11.601562 -19.625 12.03125 -19.625 Z M 12.03125 -19.625 "/></g></g></g><g fill="#8d9b07" fill-opacity="1"><g transform="translate(142.075397, 41.703711)"><g><path d="M 15.015625 -19.625 L 19.546875 -19.625 C 19.972656 -19.625 20.1875 -19.410156 20.1875 -18.984375 L 20.1875 -0.640625 C 20.1875 -0.210938 19.972656 0 19.546875 0 L 17.03125 0 C 16.601562 0 16.390625 -0.210938 16.390625 -0.640625 L 16.390625 -15.109375 L 16.265625 -15.109375 L 13.15625 -4.890625 C 13.03125 -4.484375 12.773438 -4.28125 12.390625 -4.28125 L 9.828125 -4.28125 C 9.441406 -4.28125 9.1875 -4.484375 9.0625 -4.890625 L 5.890625 -15.140625 L 5.765625 -15.140625 L 5.765625 -0.640625 C 5.765625 -0.398438 5.722656 -0.234375 5.640625 -0.140625 C 5.566406 -0.046875 5.394531 0 5.125 0 L 2.625 0 C 2.195312 0 1.984375 -0.210938 1.984375 -0.640625 L 1.984375 -18.984375 C 1.984375 -19.410156 2.195312 -19.625 2.625 -19.625 L 7.171875 -19.625 C 7.460938 -19.625 7.65625 -19.484375 7.75 -19.203125 L 10.984375 -8.421875 L 11.171875 -8.421875 L 14.4375 -19.203125 C 14.5 -19.484375 14.691406 -19.625 15.015625 -19.625 Z M 15.015625 -19.625 "/></g></g></g><g fill="#8d9b07" fill-opacity="1"><g transform="translate(166.404899, 41.703711)"><g><path d="M 12.609375 0 L 2.625 0 C 2.195312 0 1.984375 -0.210938 1.984375 -0.640625 L 1.984375 -18.984375 C 1.984375 -19.410156 2.195312 -19.625 2.625 -19.625 L 12.609375 -19.625 C 13.015625 -19.625 13.21875 -19.410156 13.21875 -18.984375 L 13.21875 -16.921875 C 13.21875 -16.484375 13.015625 -16.265625 12.609375 -16.265625 L 6.234375 -16.265625 C 5.984375 -16.265625 5.859375 -16.15625 5.859375 -15.9375 L 5.859375 -11.96875 C 5.859375 -11.738281 5.984375 -11.625 6.234375 -11.625 L 11.453125 -11.625 C 11.878906 -11.625 12.09375 -11.410156 12.09375 -10.984375 L 12.09375 -8.921875 C 12.09375 -8.492188 11.878906 -8.28125 11.453125 -8.28125 L 6.234375 -8.28125 C 5.984375 -8.28125 5.859375 -8.164062 5.859375 -7.9375 L 5.859375 -3.6875 C 5.859375 -3.46875 5.984375 -3.359375 6.234375 -3.359375 L 12.609375 -3.359375 C 13.015625 -3.359375 13.21875 -3.144531 13.21875 -2.71875 L 13.21875 -0.640625 C 13.21875 -0.210938 13.015625 0 12.609375 0 Z M 12.609375 0 "/></g></g></g><g fill="#8d9b07" fill-opacity="1"><g transform="translate(183.194632, 41.703711)"><g><path d="M 9.1875 0 L 6.59375 0 C 6.164062 0 5.953125 -0.210938 5.953125 -0.640625 L 5.953125 -7.171875 L 0.359375 -18.953125 C 0.285156 -19.140625 0.289062 -19.296875 0.375 -19.421875 C 0.46875 -19.554688 0.609375 -19.625 0.796875 -19.625 L 4.03125 -19.625 C 4.351562 -19.625 4.597656 -19.410156 4.765625 -18.984375 L 7.8125 -11.578125 L 8.03125 -11.578125 L 11.015625 -18.984375 C 11.160156 -19.410156 11.40625 -19.625 11.75 -19.625 L 14.984375 -19.625 C 15.191406 -19.625 15.34375 -19.5625 15.4375 -19.4375 C 15.53125 -19.320312 15.523438 -19.160156 15.421875 -18.953125 L 9.828125 -7.171875 L 9.828125 -0.640625 C 9.828125 -0.210938 9.613281 0 9.1875 0 Z M 9.1875 0 "/></g></g></g><g fill="#8d9b07" fill-opacity="1"><g transform="translate(201.144323, 41.703711)"><g><path d="M 1.5 -5 L 1.5 -5.625 C 1.5 -6.050781 1.710938 -6.265625 2.140625 -6.265625 L 4.734375 -6.265625 C 5.160156 -6.265625 5.375 -6.050781 5.375 -5.625 L 5.375 -5.375 C 5.375 -4.601562 5.523438 -4.070312 5.828125 -3.78125 C 6.140625 -3.5 6.703125 -3.359375 7.515625 -3.359375 L 8.953125 -3.359375 C 9.742188 -3.359375 10.296875 -3.507812 10.609375 -3.8125 C 10.921875 -4.125 11.078125 -4.695312 11.078125 -5.53125 L 11.078125 -5.890625 C 11.078125 -6.484375 10.835938 -6.9375 10.359375 -7.25 C 9.878906 -7.5625 9.285156 -7.75 8.578125 -7.8125 C 7.867188 -7.875 7.097656 -7.988281 6.265625 -8.15625 C 5.441406 -8.332031 4.675781 -8.554688 3.96875 -8.828125 C 3.257812 -9.109375 2.664062 -9.648438 2.1875 -10.453125 C 1.707031 -11.253906 1.46875 -12.289062 1.46875 -13.5625 L 1.46875 -14.625 C 1.46875 -16.207031 1.914062 -17.4375 2.8125 -18.3125 C 3.707031 -19.1875 4.945312 -19.625 6.53125 -19.625 L 9.59375 -19.625 C 11.195312 -19.625 12.445312 -19.1875 13.34375 -18.3125 C 14.238281 -17.4375 14.6875 -16.207031 14.6875 -14.625 L 14.6875 -14.046875 C 14.6875 -13.617188 14.472656 -13.40625 14.046875 -13.40625 L 11.453125 -13.40625 C 11.023438 -13.40625 10.8125 -13.617188 10.8125 -14.046875 L 10.8125 -14.234375 C 10.8125 -15.023438 10.65625 -15.5625 10.34375 -15.84375 C 10.039062 -16.125 9.484375 -16.265625 8.671875 -16.265625 L 7.484375 -16.265625 C 6.648438 -16.265625 6.082031 -16.109375 5.78125 -15.796875 C 5.488281 -15.484375 5.34375 -14.867188 5.34375 -13.953125 L 5.34375 -13.375 C 5.34375 -12.414062 6.175781 -11.863281 7.84375 -11.71875 C 9.570312 -11.582031 11.109375 -11.238281 12.453125 -10.6875 C 13.171875 -10.382812 13.765625 -9.835938 14.234375 -9.046875 C 14.710938 -8.265625 14.953125 -7.265625 14.953125 -6.046875 L 14.953125 -5 C 14.953125 -3.414062 14.503906 -2.1875 13.609375 -1.3125 C 12.722656 -0.4375 11.484375 0 9.890625 0 L 6.5625 0 C 4.976562 0 3.738281 -0.4375 2.84375 -1.3125 C 1.945312 -2.1875 1.5 -3.414062 1.5 -5 Z M 1.5 -5 "/></g></g></g><g fill="#8d9b07" fill-opacity="1"><g transform="translate(219.765574, 41.703711)"><g><path d="M 4.03125 0 L 1.09375 0 C 0.726562 0 0.609375 -0.210938 0.734375 -0.640625 L 5.5625 -18.984375 C 5.695312 -19.410156 6 -19.625 6.46875 -19.625 L 10.53125 -19.625 C 11.039062 -19.625 11.347656 -19.410156 11.453125 -18.984375 L 16.265625 -0.640625 C 16.390625 -0.210938 16.269531 0 15.90625 0 L 12.96875 0 C 12.75 0 12.597656 -0.046875 12.515625 -0.140625 C 12.429688 -0.234375 12.367188 -0.398438 12.328125 -0.640625 L 11.484375 -4 L 5.53125 -4 L 4.671875 -0.640625 C 4.628906 -0.398438 4.5625 -0.234375 4.46875 -0.140625 C 4.375 -0.046875 4.226562 0 4.03125 0 Z M 8.453125 -15.9375 L 6.265625 -7.109375 L 10.78125 -7.109375 L 8.578125 -15.9375 Z M 8.453125 -15.9375 "/></g></g></g><g fill="#8d9b07" fill-opacity="1"><g transform="translate(238.936276, 41.703711)"><g/></g></g><g fill="#8d9b07" fill-opacity="1"><g transform="translate(247.819945, 41.703711)"><g><path d="M 9.1875 0 L 6.59375 0 C 6.164062 0 5.953125 -0.210938 5.953125 -0.640625 L 5.953125 -7.171875 L 0.359375 -18.953125 C 0.285156 -19.140625 0.289062 -19.296875 0.375 -19.421875 C 0.46875 -19.554688 0.609375 -19.625 0.796875 -19.625 L 4.03125 -19.625 C 4.351562 -19.625 4.597656 -19.410156 4.765625 -18.984375 L 7.8125 -11.578125 L 8.03125 -11.578125 L 11.015625 -18.984375 C 11.160156 -19.410156 11.40625 -19.625 11.75 -19.625 L 14.984375 -19.625 C 15.191406 -19.625 15.34375 -19.5625 15.4375 -19.4375 C 15.53125 -19.320312 15.523438 -19.160156 15.421875 -18.953125 L 9.828125 -7.171875 L 9.828125 -0.640625 C 9.828125 -0.210938 9.613281 0 9.1875 0 Z M 9.1875 0 "/></g></g></g><g fill="#8d9b07" fill-opacity="1"><g transform="translate(265.769645, 41.703711)"><g><path d="M 7.328125 -3.359375 L 9.5 -3.359375 C 10.144531 -3.359375 10.601562 -3.492188 10.875 -3.765625 C 11.15625 -4.046875 11.296875 -4.507812 11.296875 -5.15625 L 11.296875 -14.46875 C 11.296875 -15.125 11.15625 -15.585938 10.875 -15.859375 C 10.601562 -16.128906 10.144531 -16.265625 9.5 -16.265625 L 7.328125 -16.265625 C 6.671875 -16.265625 6.210938 -16.128906 5.953125 -15.859375 C 5.691406 -15.585938 5.5625 -15.125 5.5625 -14.46875 L 5.5625 -5.15625 C 5.5625 -4.507812 5.691406 -4.046875 5.953125 -3.765625 C 6.210938 -3.492188 6.671875 -3.359375 7.328125 -3.359375 Z M 10.140625 0 L 6.71875 0 C 5.113281 0 3.867188 -0.425781 2.984375 -1.28125 C 2.109375 -2.132812 1.671875 -3.367188 1.671875 -4.984375 L 1.671875 -14.65625 C 1.671875 -16.257812 2.109375 -17.488281 2.984375 -18.34375 C 3.867188 -19.195312 5.113281 -19.625 6.71875 -19.625 L 10.140625 -19.625 C 11.742188 -19.625 12.984375 -19.195312 13.859375 -18.34375 C 14.734375 -17.488281 15.171875 -16.257812 15.171875 -14.65625 L 15.171875 -4.984375 C 15.171875 -3.367188 14.734375 -2.132812 13.859375 -1.28125 C 12.984375 -0.425781 11.742188 0 10.140625 0 Z M 10.140625 0 "/></g></g></g><g fill="#8d9b07" fill-opacity="1"><g transform="translate(284.787733, 41.703711)"><g><path d="M 12.671875 0 L 2.625 0 C 2.195312 0 1.984375 -0.210938 1.984375 -0.640625 L 1.984375 -18.984375 C 1.984375 -19.410156 2.195312 -19.625 2.625 -19.625 L 5.21875 -19.625 C 5.644531 -19.625 5.859375 -19.410156 5.859375 -18.984375 L 5.859375 -3.71875 C 5.859375 -3.5 5.984375 -3.390625 6.234375 -3.390625 L 12.671875 -3.390625 C 13.078125 -3.390625 13.28125 -3.164062 13.28125 -2.71875 L 13.28125 -0.640625 C 13.28125 -0.210938 13.078125 0 12.671875 0 Z M 12.671875 0 "/></g></g></g><g fill="#8d9b07" fill-opacity="1"><g transform="translate(300.661709, 41.703711)"><g><path d="M 10.046875 0 L 6.71875 0 C 5.113281 0 3.867188 -0.425781 2.984375 -1.28125 C 2.109375 -2.132812 1.671875 -3.367188 1.671875 -4.984375 L 1.671875 -14.65625 C 1.671875 -16.257812 2.109375 -17.488281 2.984375 -18.34375 C 3.867188 -19.195312 5.113281 -19.625 6.71875 -19.625 L 10.046875 -19.625 C 11.628906 -19.625 12.863281 -19.191406 13.75 -18.328125 C 14.632812 -17.460938 15.078125 -16.238281 15.078125 -14.65625 L 15.078125 -13.21875 C 15.078125 -12.769531 14.851562 -12.546875 14.40625 -12.546875 L 11.84375 -12.546875 C 11.414062 -12.546875 11.203125 -12.769531 11.203125 -13.21875 L 11.203125 -14.46875 C 11.203125 -15.125 11.0625 -15.585938 10.78125 -15.859375 C 10.507812 -16.128906 10.050781 -16.265625 9.40625 -16.265625 L 7.328125 -16.265625 C 6.691406 -16.265625 6.238281 -16.128906 5.96875 -15.859375 C 5.695312 -15.585938 5.5625 -15.125 5.5625 -14.46875 L 5.5625 -5.15625 C 5.5625 -4.507812 5.695312 -4.046875 5.96875 -3.765625 C 6.238281 -3.492188 6.691406 -3.359375 7.328125 -3.359375 L 9.40625 -3.359375 C 10.050781 -3.359375 10.507812 -3.492188 10.78125 -3.765625 C 11.0625 -4.046875 11.203125 -4.507812 11.203125 -5.15625 L 11.203125 -6.40625 C 11.203125 -6.851562 11.414062 -7.078125 11.84375 -7.078125 L 14.40625 -7.078125 C 14.851562 -7.078125 15.078125 -6.851562 15.078125 -6.40625 L 15.078125 -4.984375 C 15.078125 -3.390625 14.632812 -2.160156 13.75 -1.296875 C 12.863281 -0.429688 11.628906 0 10.046875 0 Z M 10.046875 0 "/></g></g></g><g fill="#8d9b07" fill-opacity="1"><g transform="translate(319.252446, 41.703711)"><g><path d="M 12.03125 -19.625 L 14.59375 -19.625 C 15.039062 -19.625 15.265625 -19.421875 15.265625 -19.015625 L 15.265625 -4.984375 C 15.265625 -3.390625 14.820312 -2.160156 13.9375 -1.296875 C 13.050781 -0.429688 11.816406 0 10.234375 0 L 6.875 0 C 5.257812 0 4.015625 -0.425781 3.140625 -1.28125 C 2.265625 -2.132812 1.828125 -3.367188 1.828125 -4.984375 L 1.828125 -18.984375 C 1.828125 -19.410156 2.039062 -19.625 2.46875 -19.625 L 5.0625 -19.625 C 5.488281 -19.625 5.703125 -19.410156 5.703125 -18.984375 L 5.703125 -5.15625 C 5.703125 -4.507812 5.835938 -4.046875 6.109375 -3.765625 C 6.390625 -3.492188 6.847656 -3.359375 7.484375 -3.359375 L 9.59375 -3.359375 C 10.238281 -3.359375 10.695312 -3.492188 10.96875 -3.765625 C 11.25 -4.046875 11.390625 -4.507812 11.390625 -5.15625 L 11.390625 -18.984375 C 11.390625 -19.410156 11.601562 -19.625 12.03125 -19.625 Z M 12.03125 -19.625 "/></g></g></g><g fill="#8d9b07" fill-opacity="1"><g transform="translate(103.947647, 60.598645)"><g><path d="M 3.546875 -1.15625 C 3.785156 -1.15625 3.984375 -1.179688 4.140625 -1.234375 C 4.296875 -1.296875 4.421875 -1.375 4.515625 -1.46875 C 4.609375 -1.5625 4.671875 -1.671875 4.703125 -1.796875 C 4.742188 -1.921875 4.765625 -2.050781 4.765625 -2.1875 C 4.765625 -2.332031 4.738281 -2.460938 4.6875 -2.578125 C 4.644531 -2.703125 4.578125 -2.800781 4.484375 -2.875 C 4.390625 -2.957031 4.265625 -3.019531 4.109375 -3.0625 C 3.953125 -3.113281 3.757812 -3.140625 3.53125 -3.140625 L 2.265625 -3.140625 L 2.265625 -1.15625 Z M 2.265625 -6.109375 L 2.265625 -4.15625 L 3.25 -4.15625 C 3.457031 -4.15625 3.640625 -4.171875 3.796875 -4.203125 C 3.960938 -4.242188 4.097656 -4.300781 4.203125 -4.375 C 4.316406 -4.445312 4.40625 -4.546875 4.46875 -4.671875 C 4.53125 -4.796875 4.5625 -4.945312 4.5625 -5.125 C 4.5625 -5.3125 4.535156 -5.46875 4.484375 -5.59375 C 4.429688 -5.71875 4.351562 -5.816406 4.25 -5.890625 C 4.15625 -5.972656 4.03125 -6.03125 3.875 -6.0625 C 3.726562 -6.09375 3.546875 -6.109375 3.328125 -6.109375 Z M 3.328125 -7.25 C 3.816406 -7.25 4.234375 -7.203125 4.578125 -7.109375 C 4.921875 -7.023438 5.203125 -6.894531 5.421875 -6.71875 C 5.640625 -6.550781 5.800781 -6.347656 5.90625 -6.109375 C 6.007812 -5.867188 6.0625 -5.601562 6.0625 -5.3125 C 6.0625 -5.144531 6.035156 -4.984375 5.984375 -4.828125 C 5.929688 -4.671875 5.851562 -4.523438 5.75 -4.390625 C 5.65625 -4.253906 5.523438 -4.128906 5.359375 -4.015625 C 5.203125 -3.910156 5.015625 -3.820312 4.796875 -3.75 C 5.285156 -3.632812 5.648438 -3.441406 5.890625 -3.171875 C 6.128906 -2.910156 6.25 -2.570312 6.25 -2.15625 C 6.25 -1.84375 6.1875 -1.554688 6.0625 -1.296875 C 5.945312 -1.035156 5.773438 -0.804688 5.546875 -0.609375 C 5.316406 -0.421875 5.035156 -0.269531 4.703125 -0.15625 C 4.378906 -0.0507812 4 0 3.5625 0 L 0.765625 0 L 0.765625 -7.25 Z M 3.328125 -7.25 "/></g></g></g><g fill="#8d9b07" fill-opacity="1"><g transform="translate(116.210063, 60.598645)"><g><path d="M 2.265625 0 L 0.765625 0 L 0.765625 -7.25 L 2.265625 -7.25 Z M 2.34375 -8.484375 C 2.34375 -8.367188 2.320312 -8.265625 2.28125 -8.171875 C 2.238281 -8.078125 2.175781 -7.992188 2.09375 -7.921875 C 2.019531 -7.847656 1.929688 -7.789062 1.828125 -7.75 C 1.734375 -7.707031 1.628906 -7.6875 1.515625 -7.6875 C 1.398438 -7.6875 1.296875 -7.707031 1.203125 -7.75 C 1.109375 -7.789062 1.023438 -7.847656 0.953125 -7.921875 C 0.878906 -7.992188 0.820312 -8.078125 0.78125 -8.171875 C 0.738281 -8.265625 0.71875 -8.367188 0.71875 -8.484375 C 0.71875 -8.585938 0.738281 -8.6875 0.78125 -8.78125 C 0.820312 -8.882812 0.878906 -8.972656 0.953125 -9.046875 C 1.023438 -9.117188 1.109375 -9.175781 1.203125 -9.21875 C 1.296875 -9.269531 1.398438 -9.296875 1.515625 -9.296875 C 1.628906 -9.296875 1.734375 -9.269531 1.828125 -9.21875 C 1.929688 -9.175781 2.019531 -9.117188 2.09375 -9.046875 C 2.175781 -8.972656 2.238281 -8.882812 2.28125 -8.78125 C 2.320312 -8.6875 2.34375 -8.585938 2.34375 -8.484375 Z M 2.34375 -8.484375 "/></g></g></g><g fill="#8d9b07" fill-opacity="1"><g transform="translate(124.868896, 60.598645)"><g><path d="M 5.0625 -1.21875 L 5.0625 0 L 0.765625 0 L 0.765625 -7.25 L 2.265625 -7.25 L 2.265625 -1.21875 Z M 5.0625 -1.21875 "/></g></g></g><g fill="#8d9b07" fill-opacity="1"><g transform="translate(135.716867, 60.598645)"><g><path d="M 2.265625 0 L 0.765625 0 L 0.765625 -7.25 L 2.265625 -7.25 Z M 2.34375 -8.484375 C 2.34375 -8.367188 2.320312 -8.265625 2.28125 -8.171875 C 2.238281 -8.078125 2.175781 -7.992188 2.09375 -7.921875 C 2.019531 -7.847656 1.929688 -7.789062 1.828125 -7.75 C 1.734375 -7.707031 1.628906 -7.6875 1.515625 -7.6875 C 1.398438 -7.6875 1.296875 -7.707031 1.203125 -7.75 C 1.109375 -7.789062 1.023438 -7.847656 0.953125 -7.921875 C 0.878906 -7.992188 0.820312 -8.078125 0.78125 -8.171875 C 0.738281 -8.265625 0.71875 -8.367188 0.71875 -8.484375 C 0.71875 -8.585938 0.738281 -8.6875 0.78125 -8.78125 C 0.820312 -8.882812 0.878906 -8.972656 0.953125 -9.046875 C 1.023438 -9.117188 1.109375 -9.175781 1.203125 -9.21875 C 1.296875 -9.269531 1.398438 -9.296875 1.515625 -9.296875 C 1.628906 -9.296875 1.734375 -9.269531 1.828125 -9.21875 C 1.929688 -9.175781 2.019531 -9.117188 2.09375 -9.046875 C 2.175781 -8.972656 2.238281 -8.882812 2.28125 -8.78125 C 2.320312 -8.6875 2.34375 -8.585938 2.34375 -8.484375 Z M 2.34375 -8.484375 "/></g></g></g><g fill="#8d9b07" fill-opacity="1"><g transform="translate(144.3757, 60.598645)"><g><path d="M 4.6875 -5.859375 C 4.644531 -5.785156 4.597656 -5.726562 4.546875 -5.6875 C 4.492188 -5.65625 4.429688 -5.640625 4.359375 -5.640625 C 4.285156 -5.640625 4.207031 -5.664062 4.125 -5.71875 C 4.039062 -5.769531 3.941406 -5.828125 3.828125 -5.890625 C 3.710938 -5.953125 3.582031 -6.007812 3.4375 -6.0625 C 3.289062 -6.113281 3.117188 -6.140625 2.921875 -6.140625 C 2.578125 -6.140625 2.316406 -6.0625 2.140625 -5.90625 C 1.960938 -5.75 1.875 -5.546875 1.875 -5.296875 C 1.875 -5.140625 1.921875 -5.003906 2.015625 -4.890625 C 2.117188 -4.785156 2.242188 -4.695312 2.390625 -4.625 C 2.546875 -4.550781 2.722656 -4.484375 2.921875 -4.421875 C 3.117188 -4.359375 3.320312 -4.289062 3.53125 -4.21875 C 3.738281 -4.144531 3.941406 -4.0625 4.140625 -3.96875 C 4.335938 -3.875 4.507812 -3.753906 4.65625 -3.609375 C 4.8125 -3.460938 4.9375 -3.28125 5.03125 -3.0625 C 5.132812 -2.851562 5.1875 -2.597656 5.1875 -2.296875 C 5.1875 -2.003906 5.140625 -1.726562 5.046875 -1.46875 C 4.953125 -1.207031 4.816406 -0.972656 4.640625 -0.765625 C 4.472656 -0.554688 4.265625 -0.382812 4.015625 -0.25 C 3.765625 -0.113281 3.484375 -0.0195312 3.171875 0.03125 L 3.09375 0.28125 C 3.25 0.3125 3.378906 0.351562 3.484375 0.40625 C 3.597656 0.457031 3.6875 0.515625 3.75 0.578125 C 3.8125 0.648438 3.859375 0.722656 3.890625 0.796875 C 3.921875 0.867188 3.9375 0.945312 3.9375 1.03125 C 3.9375 1.144531 3.90625 1.25 3.84375 1.34375 C 3.78125 1.4375 3.691406 1.515625 3.578125 1.578125 C 3.472656 1.640625 3.335938 1.6875 3.171875 1.71875 C 3.015625 1.757812 2.84375 1.78125 2.65625 1.78125 C 2.519531 1.78125 2.390625 1.769531 2.265625 1.75 C 2.148438 1.738281 2.035156 1.71875 1.921875 1.6875 L 2.046875 1.265625 C 2.066406 1.179688 2.117188 1.140625 2.203125 1.140625 C 2.253906 1.140625 2.304688 1.144531 2.359375 1.15625 C 2.410156 1.175781 2.476562 1.1875 2.5625 1.1875 C 2.664062 1.1875 2.738281 1.164062 2.78125 1.125 C 2.832031 1.09375 2.859375 1.054688 2.859375 1.015625 C 2.859375 0.929688 2.800781 0.867188 2.6875 0.828125 C 2.570312 0.785156 2.394531 0.75 2.15625 0.71875 L 2.375 0.0625 C 2.164062 0.0507812 1.957031 0.0195312 1.75 -0.03125 C 1.539062 -0.0820312 1.34375 -0.148438 1.15625 -0.234375 C 0.96875 -0.316406 0.789062 -0.410156 0.625 -0.515625 C 0.457031 -0.628906 0.3125 -0.75 0.1875 -0.875 L 0.625 -1.578125 C 0.664062 -1.640625 0.710938 -1.6875 0.765625 -1.71875 C 0.828125 -1.75 0.894531 -1.765625 0.96875 -1.765625 C 1.050781 -1.765625 1.144531 -1.726562 1.25 -1.65625 C 1.351562 -1.59375 1.46875 -1.519531 1.59375 -1.4375 C 1.726562 -1.363281 1.878906 -1.289062 2.046875 -1.21875 C 2.222656 -1.15625 2.429688 -1.125 2.671875 -1.125 C 3.015625 -1.125 3.28125 -1.203125 3.46875 -1.359375 C 3.664062 -1.523438 3.765625 -1.765625 3.765625 -2.078125 C 3.765625 -2.265625 3.71875 -2.414062 3.625 -2.53125 C 3.53125 -2.644531 3.40625 -2.738281 3.25 -2.8125 C 3.09375 -2.894531 2.914062 -2.960938 2.71875 -3.015625 C 2.53125 -3.066406 2.332031 -3.125 2.125 -3.1875 C 1.914062 -3.257812 1.710938 -3.34375 1.515625 -3.4375 C 1.316406 -3.53125 1.140625 -3.648438 0.984375 -3.796875 C 0.835938 -3.953125 0.710938 -4.144531 0.609375 -4.375 C 0.515625 -4.601562 0.46875 -4.882812 0.46875 -5.21875 C 0.46875 -5.488281 0.519531 -5.75 0.625 -6 C 0.738281 -6.257812 0.898438 -6.484375 1.109375 -6.671875 C 1.316406 -6.867188 1.566406 -7.023438 1.859375 -7.140625 C 2.160156 -7.265625 2.507812 -7.328125 2.90625 -7.328125 C 3.34375 -7.328125 3.742188 -7.257812 4.109375 -7.125 C 4.484375 -7 4.800781 -6.8125 5.0625 -6.5625 Z M 4.6875 -5.859375 "/></g></g></g><g fill="#8d9b07" fill-opacity="1"><g transform="translate(155.513553, 60.598645)"><g><path d="M 2.265625 0 L 0.765625 0 L 0.765625 -7.25 L 2.265625 -7.25 Z M 2.34375 -8.484375 C 2.34375 -8.367188 2.320312 -8.265625 2.28125 -8.171875 C 2.238281 -8.078125 2.175781 -7.992188 2.09375 -7.921875 C 2.019531 -7.847656 1.929688 -7.789062 1.828125 -7.75 C 1.734375 -7.707031 1.628906 -7.6875 1.515625 -7.6875 C 1.398438 -7.6875 1.296875 -7.707031 1.203125 -7.75 C 1.109375 -7.789062 1.023438 -7.847656 0.953125 -7.921875 C 0.878906 -7.992188 0.820312 -8.078125 0.78125 -8.171875 C 0.738281 -8.265625 0.71875 -8.367188 0.71875 -8.484375 C 0.71875 -8.585938 0.738281 -8.6875 0.78125 -8.78125 C 0.820312 -8.882812 0.878906 -8.972656 0.953125 -9.046875 C 1.023438 -9.117188 1.109375 -9.175781 1.203125 -9.21875 C 1.296875 -9.269531 1.398438 -9.296875 1.515625 -9.296875 C 1.628906 -9.296875 1.734375 -9.269531 1.828125 -9.21875 C 1.929688 -9.175781 2.019531 -9.117188 2.09375 -9.046875 C 2.175781 -8.972656 2.238281 -8.882812 2.28125 -8.78125 C 2.320312 -8.6875 2.34375 -8.585938 2.34375 -8.484375 Z M 2.34375 -8.484375 "/></g></g></g><g fill="#8d9b07" fill-opacity="1"><g transform="translate(164.172387, 60.598645)"><g><path d="M 8.765625 -7.25 L 8.765625 0 L 7.4375 0 L 7.4375 -4.453125 C 7.4375 -4.546875 7.4375 -4.644531 7.4375 -4.75 C 7.445312 -4.863281 7.457031 -4.972656 7.46875 -5.078125 L 5.390625 -1.140625 C 5.273438 -0.921875 5.101562 -0.8125 4.875 -0.8125 L 4.65625 -0.8125 C 4.539062 -0.8125 4.4375 -0.835938 4.34375 -0.890625 C 4.257812 -0.953125 4.191406 -1.035156 4.140625 -1.140625 L 2.046875 -5.09375 C 2.054688 -4.976562 2.0625 -4.863281 2.0625 -4.75 C 2.070312 -4.644531 2.078125 -4.546875 2.078125 -4.453125 L 2.078125 0 L 0.765625 0 L 0.765625 -7.25 L 1.90625 -7.25 C 1.96875 -7.25 2.019531 -7.25 2.0625 -7.25 C 2.113281 -7.25 2.160156 -7.238281 2.203125 -7.21875 C 2.242188 -7.207031 2.28125 -7.1875 2.3125 -7.15625 C 2.34375 -7.125 2.375 -7.078125 2.40625 -7.015625 L 4.4375 -3.15625 C 4.5 -3.03125 4.554688 -2.90625 4.609375 -2.78125 C 4.660156 -2.664062 4.710938 -2.539062 4.765625 -2.40625 C 4.816406 -2.539062 4.867188 -2.671875 4.921875 -2.796875 C 4.972656 -2.921875 5.03125 -3.046875 5.09375 -3.171875 L 7.109375 -7.015625 C 7.140625 -7.078125 7.171875 -7.125 7.203125 -7.15625 C 7.242188 -7.1875 7.28125 -7.207031 7.3125 -7.21875 C 7.351562 -7.238281 7.394531 -7.25 7.4375 -7.25 C 7.488281 -7.25 7.550781 -7.25 7.625 -7.25 Z M 8.765625 -7.25 "/></g></g></g><g fill="#8d9b07" fill-opacity="1"><g transform="translate(179.313668, 60.598645)"><g/></g></g><g fill="#8d9b07" fill-opacity="1"><g transform="translate(187.317763, 60.598645)"><g><path d="M 6.96875 -7.25 L 6.96875 0 L 5.46875 0 L 5.46875 -3.125 L 2.265625 -3.125 L 2.265625 0 L 0.765625 0 L 0.765625 -7.25 L 2.265625 -7.25 L 2.265625 -4.171875 L 5.46875 -4.171875 L 5.46875 -7.25 Z M 6.96875 -7.25 "/></g></g></g><g fill="#8d9b07" fill-opacity="1"><g transform="translate(200.67974, 60.598645)"><g><path d="M 2.265625 0 L 0.765625 0 L 0.765625 -7.25 L 2.265625 -7.25 Z M 2.34375 -8.484375 C 2.34375 -8.367188 2.320312 -8.265625 2.28125 -8.171875 C 2.238281 -8.078125 2.175781 -7.992188 2.09375 -7.921875 C 2.019531 -7.847656 1.929688 -7.789062 1.828125 -7.75 C 1.734375 -7.707031 1.628906 -7.6875 1.515625 -7.6875 C 1.398438 -7.6875 1.296875 -7.707031 1.203125 -7.75 C 1.109375 -7.789062 1.023438 -7.847656 0.953125 -7.921875 C 0.878906 -7.992188 0.820312 -8.078125 0.78125 -8.171875 C 0.738281 -8.265625 0.71875 -8.367188 0.71875 -8.484375 C 0.71875 -8.585938 0.738281 -8.6875 0.78125 -8.78125 C 0.820312 -8.882812 0.878906 -8.972656 0.953125 -9.046875 C 1.023438 -9.117188 1.109375 -9.175781 1.203125 -9.21875 C 1.296875 -9.269531 1.398438 -9.296875 1.515625 -9.296875 C 1.628906 -9.296875 1.734375 -9.269531 1.828125 -9.21875 C 1.929688 -9.175781 2.019531 -9.117188 2.09375 -9.046875 C 2.175781 -8.972656 2.238281 -8.882812 2.28125 -8.78125 C 2.320312 -8.6875 2.34375 -8.585938 2.34375 -8.484375 Z M 2.34375 -8.484375 "/></g></g></g><g fill="#8d9b07" fill-opacity="1"><g transform="translate(209.338568, 60.598645)"><g><path d="M 5.828125 -6.703125 C 5.828125 -6.628906 5.8125 -6.550781 5.78125 -6.46875 C 5.757812 -6.394531 5.726562 -6.320312 5.6875 -6.25 L 2.09375 -1.171875 L 5.71875 -1.171875 L 5.71875 0 L 0.171875 0 L 0.171875 -0.578125 C 0.171875 -0.648438 0.179688 -0.71875 0.203125 -0.78125 C 0.234375 -0.851562 0.269531 -0.921875 0.3125 -0.984375 L 3.90625 -6.078125 L 0.4375 -6.078125 L 0.4375 -7.25 L 5.828125 -7.25 Z M 5.828125 -6.703125 "/></g></g></g><g fill="#8d9b07" fill-opacity="1"><g transform="translate(221.036203, 60.598645)"><g><path d="M 8.765625 -7.25 L 8.765625 0 L 7.4375 0 L 7.4375 -4.453125 C 7.4375 -4.546875 7.4375 -4.644531 7.4375 -4.75 C 7.445312 -4.863281 7.457031 -4.972656 7.46875 -5.078125 L 5.390625 -1.140625 C 5.273438 -0.921875 5.101562 -0.8125 4.875 -0.8125 L 4.65625 -0.8125 C 4.539062 -0.8125 4.4375 -0.835938 4.34375 -0.890625 C 4.257812 -0.953125 4.191406 -1.035156 4.140625 -1.140625 L 2.046875 -5.09375 C 2.054688 -4.976562 2.0625 -4.863281 2.0625 -4.75 C 2.070312 -4.644531 2.078125 -4.546875 2.078125 -4.453125 L 2.078125 0 L 0.765625 0 L 0.765625 -7.25 L 1.90625 -7.25 C 1.96875 -7.25 2.019531 -7.25 2.0625 -7.25 C 2.113281 -7.25 2.160156 -7.238281 2.203125 -7.21875 C 2.242188 -7.207031 2.28125 -7.1875 2.3125 -7.15625 C 2.34375 -7.125 2.375 -7.078125 2.40625 -7.015625 L 4.4375 -3.15625 C 4.5 -3.03125 4.554688 -2.90625 4.609375 -2.78125 C 4.660156 -2.664062 4.710938 -2.539062 4.765625 -2.40625 C 4.816406 -2.539062 4.867188 -2.671875 4.921875 -2.796875 C 4.972656 -2.921875 5.03125 -3.046875 5.09375 -3.171875 L 7.109375 -7.015625 C 7.140625 -7.078125 7.171875 -7.125 7.203125 -7.15625 C 7.242188 -7.1875 7.28125 -7.207031 7.3125 -7.21875 C 7.351562 -7.238281 7.394531 -7.25 7.4375 -7.25 C 7.488281 -7.25 7.550781 -7.25 7.625 -7.25 Z M 8.765625 -7.25 "/></g></g></g><g fill="#8d9b07" fill-opacity="1"><g transform="translate(236.177479, 60.598645)"><g><path d="M 2.265625 -6.078125 L 2.265625 -4.21875 L 4.6875 -4.21875 L 4.6875 -3.078125 L 2.265625 -3.078125 L 2.265625 -1.171875 L 5.375 -1.171875 L 5.375 0 L 0.765625 0 L 0.765625 -7.25 L 5.375 -7.25 L 5.375 -6.078125 Z M 2.265625 -6.078125 "/></g></g></g><g fill="#8d9b07" fill-opacity="1"><g transform="translate(247.545238, 60.598645)"><g><path d="M 5.890625 -6.046875 L 3.78125 -6.046875 L 3.78125 0 L 2.265625 0 L 2.265625 -6.046875 L 0.15625 -6.046875 L 0.15625 -7.25 L 5.890625 -7.25 Z M 5.890625 -6.046875 "/></g></g></g><g fill="#8d9b07" fill-opacity="1"><g transform="translate(259.212877, 60.598645)"><g><path d="M 5.0625 -1.21875 L 5.0625 0 L 0.765625 0 L 0.765625 -7.25 L 2.265625 -7.25 L 2.265625 -1.21875 Z M 5.0625 -1.21875 "/></g></g></g><g fill="#8d9b07" fill-opacity="1"><g transform="translate(270.060846, 60.598645)"><g><path d="M 2.265625 -6.078125 L 2.265625 -4.21875 L 4.6875 -4.21875 L 4.6875 -3.078125 L 2.265625 -3.078125 L 2.265625 -1.171875 L 5.375 -1.171875 L 5.375 0 L 0.765625 0 L 0.765625 -7.25 L 5.375 -7.25 L 5.375 -6.078125 Z M 2.265625 -6.078125 "/></g></g></g><g fill="#8d9b07" fill-opacity="1"><g transform="translate(281.428604, 60.598645)"><g><path d="M 3.03125 -3.8125 C 3.269531 -3.8125 3.476562 -3.84375 3.65625 -3.90625 C 3.832031 -3.96875 3.976562 -4.050781 4.09375 -4.15625 C 4.207031 -4.269531 4.289062 -4.398438 4.34375 -4.546875 C 4.394531 -4.691406 4.421875 -4.851562 4.421875 -5.03125 C 4.421875 -5.375 4.304688 -5.640625 4.078125 -5.828125 C 3.847656 -6.015625 3.503906 -6.109375 3.046875 -6.109375 L 2.265625 -6.109375 L 2.265625 -3.8125 Z M 6.546875 0 L 5.1875 0 C 4.9375 0 4.753906 -0.0976562 4.640625 -0.296875 L 3.265625 -2.515625 C 3.203125 -2.597656 3.132812 -2.660156 3.0625 -2.703125 C 3 -2.742188 2.898438 -2.765625 2.765625 -2.765625 L 2.265625 -2.765625 L 2.265625 0 L 0.765625 0 L 0.765625 -7.25 L 3.046875 -7.25 C 3.546875 -7.25 3.972656 -7.195312 4.328125 -7.09375 C 4.691406 -6.988281 4.988281 -6.84375 5.21875 -6.65625 C 5.445312 -6.46875 5.613281 -6.242188 5.71875 -5.984375 C 5.832031 -5.734375 5.890625 -5.453125 5.890625 -5.140625 C 5.890625 -4.898438 5.851562 -4.671875 5.78125 -4.453125 C 5.71875 -4.242188 5.617188 -4.050781 5.484375 -3.875 C 5.359375 -3.695312 5.195312 -3.535156 5 -3.390625 C 4.8125 -3.253906 4.597656 -3.144531 4.359375 -3.0625 C 4.453125 -3.007812 4.539062 -2.945312 4.625 -2.875 C 4.707031 -2.800781 4.785156 -2.710938 4.859375 -2.609375 Z M 6.546875 0 "/></g></g></g><g fill="#8d9b07" fill-opacity="1"><g transform="translate(293.551067, 60.598645)"><g><path d="M 2.265625 0 L 0.765625 0 L 0.765625 -7.25 L 2.265625 -7.25 Z M 2.34375 -8.484375 C 2.34375 -8.367188 2.320312 -8.265625 2.28125 -8.171875 C 2.238281 -8.078125 2.175781 -7.992188 2.09375 -7.921875 C 2.019531 -7.847656 1.929688 -7.789062 1.828125 -7.75 C 1.734375 -7.707031 1.628906 -7.6875 1.515625 -7.6875 C 1.398438 -7.6875 1.296875 -7.707031 1.203125 -7.75 C 1.109375 -7.789062 1.023438 -7.847656 0.953125 -7.921875 C 0.878906 -7.992188 0.820312 -8.078125 0.78125 -8.171875 C 0.738281 -8.265625 0.71875 -8.367188 0.71875 -8.484375 C 0.71875 -8.585938 0.738281 -8.6875 0.78125 -8.78125 C 0.820312 -8.882812 0.878906 -8.972656 0.953125 -9.046875 C 1.023438 -9.117188 1.109375 -9.175781 1.203125 -9.21875 C 1.296875 -9.269531 1.398438 -9.296875 1.515625 -9.296875 C 1.628906 -9.296875 1.734375 -9.269531 1.828125 -9.21875 C 1.929688 -9.175781 2.019531 -9.117188 2.09375 -9.046875 C 2.175781 -8.972656 2.238281 -8.882812 2.28125 -8.78125 C 2.320312 -8.6875 2.34375 -8.585938 2.34375 -8.484375 Z M 2.34375 -8.484375 "/></g></g></g></svg>